P1
10 15
0000000000
0100000000
0000000000
0000000100
0000000000
0000000000
0000000000
0000000000
0000000000
0000001000
0000001000
0000001000
0000000000
0000000000
0000000000
