P1
10 15
0000000000
0100000100
0000000000
0000000100
0000000000
0000100000
0000100000
0000100000
0000100000
0000001000
0000001000
0000001000
0000000100
0000000010
0000000000
