P1
10 15
0000000000
0000000000
0000000000
0000000000
0000000000
0000010000
0000010000
0000010000
0000010000
0000010000
0000010000
0000010000
0000000000
0000000000
0000000000
